# xmcd CD database file
#
# Track frame offsets:
#	150
#	7810
#	46995
#	65325
#	90712
#	114527
#	132775
#	161285
#	170705
#	192330
#	216715
#	238997
#	267975
#
# Disc length: 4092 seconds
#
# Revision: 0
# Processed by: cddbd v1.5.1PL0 Copyright (c) Steve Scherf et al.
# Submitted via: CDex 1.60beta1
#
DISCID=b80ffa0d
DTITLE=HU Ensemble - Huje 2000
DYEAR=0
DGENRE=Jazz
TTITLE0=Child Gone Wild
TTITLE1=Prayer For The Children
TTITLE2=The Other Side Of The Story
TTITLE3=Lover Man
TTITLE4=Loving You Has Been An Ecstacy
TTITLE5=Nefertiti
TTITLE6=Lament
TTITLE7=A Key Would Be Nice
TTITLE8=Overjoyed
TTITLE9=Gingerbread Boy
TTITLE10=What A Wonderful World
TTITLE11=Firm Roots
TTITLE12=Recordame
EXTD=YEAR: 0
EXTT0=
EXTT1=
EXTT2=
EXTT3=
EXTT4=
EXTT5=
EXTT6=
EXTT7=
EXTT8=
EXTT9=
EXTT10=
EXTT11=
EXTT12=
PLAYORDER=
